nalve_liarxe.sfdir
StartChar: exclam
Encoding: 33 33 12
Width: 270
Flags: HW
HStem: 550 120<50 180>
VStem: 50 130<-148 520 550 670>
LayerCount: 2
Fore
SplineSet
70 670 m 1
 200 670 l 1
 200 550 l 25
 70 550 l 25
 70 670 l 1
200 -28 m 2
 200 -73 201 -122 203 -148 c 1
 200 -150 l 1
 70 -150 l 1
 67 -148 l 1
 69 -122 70 -73 70 -28 c 2
 70 520 l 1
 200 520 l 1
 200 -28 l 2
EndSplineSet
EndChar
StartChar: quotedbl
Encoding: 34 34 82
Width: 370
Flags: HW
LayerCount: 2
Fore
SplineSet
200 650 m 29xe4
 200 790 l 17
 200 830 l 1
 310 830 l 1
 310 790 l 9
 270 650 l 29
 200 650 l 29xe4
90 650 m 25xe8
 50 790 l 17
 50 830 l 1
 160 830 l 1
 160 790 l 9
 160 650 l 25
 90 650 l 25xe8
EndSplineSet
EndChar
StartChar: numbersign
Encoding: 35 35 83
Width: 230
Flags: HW
LayerCount: 2
Fore
SplineSet
80 650 m 25xe8
 60 790 l 17
 60 830 l 1
 170 830 l 1
 170 790 l 9
 150 650 l 25
 80 650 l 25xe8
EndSplineSet
EndChar
StartChar: dollar
Encoding: 36 36 71
Width: 600
Flags: HW
HStem: 0 100<170 200 330 360> 650 20G<37 173 197 333 357 493>
VStem: 40 130<102.115 668> 200 130<100 668> 360 130<102.115 668>
LayerCount: 2
Fore
SplineSet
230 561 m 0
 230 570 223 575 215 575 c 0
 207 575 200 570 200 561 c 0
 200 551 200 474 200 430 c 25
 230 430 l 25
 230 561 l 0
390 214 m 0
 390 224 390 562 390 708 c 0
 390 755 389 806 387 828 c 1
 390 830 l 1
 520 830 l 1
 523 828 l 1
 521 802 520 753 520 708 c 2
 520 708 520 276 520 204 c 0
 520 86.7216796875 429.6171875 0 300 0 c 0
 164.833984375 0 70 81.6552734375 70 204 c 2
 70 541 l 0
 70 632 137 675 216 675 c 0
 297 675 360 632 360 541 c 0
 360 469 360 391 360 320 c 25
 200 320 l 25
 200 214 l 0
 200 148.060546875 237.858398438 100 300 100 c 0
 359.68359375 100 390 151.559570312 390 214 c 0
EndSplineSet
EndChar
StartChar: ampersand
Encoding: 38 38 72
Width: 810
Flags: HW
HStem: 0 21G<37 173> 360 130<218.002 324.913> 705 120<46.2543 213.481>
VStem: 40 290<362 400 603.687 670 705 785.036> 40 130<2 359.045 403.183 559>
LayerCount: 2
Fore
SplineSet
551 482 m 1
 574 518 588 539.489257812 588 625 c 0
 588 681 588 677 588 688 c 0
 588 698 581 705 569 705 c 0
 556 705 550 697 550 686 c 2
 550 564 l 2
 550 530.021484375 549.48046875 515.005859375 547 484 c 1
 551 482 l 1
597.796875 512.8359375 m 1
 613.200195312 520.484375 627.977539062 525 641 525 c 0
 707 525 740 482 740 391 c 0
 740 319 740 205.76953125 740 134 c 0
 740 42.90625 663.083984375 0 580 0 c 0
 496.853515625 0 482 0 420 0 c 1
 417 2 l 1
 419.395507812 28.3505859375 420 97 420 122 c 2
 420 650 l 2
 420 766 471 825 576 825 c 0
 666.006835938 825 717 771 717 690 c 0
 717 588 689 556.28515625 596 517 c 1
 597.796875 512.8359375 l 1
581 100 m 0
 596 100 611 112 611 130 c 0
 611 149.424804688 610 384 610 403 c 0
 610 421 595 433 580 433 c 0
 565 433 550 421 550 403 c 0
 550 384 550 177 550 100 c 25
 562 100 565.294921875 100 581 100 c 0
310.415039062 403.436523438 m 1
 310.415039062 397.436523438 l 1
 372 375 390 321 390 257 c 1
 392 256 l 1
 430 355 l 1
 430 260 l 1
 389.998046875 159.99609375 l 1
 389.623046875 39.7509765625 321.7421875 -5 229 -5 c 0
 140 -5 70 35 70 126 c 2
 70 155 l 1
 200 155 l 1
 200 125 l 2
 200 106 215 95 231 95 c 0
 246 95 261 107 261 125 c 0
 261 138.733398438 260 252 260 271 c 0
 260 298.586914062 237.999023438 325 212 325 c 0
 171 325 137 324 112 322 c 1
 110 325 l 1
 110 424 l 1
 112 426 l 1
 138.157226562 425 167.921875 425 204 425 c 0
 227.7578125 425 250 434.811523438 250 471 c 2
 250 547.5 l 2
 250 556.5 239.5 567.5 227 567.5 c 0
 214.5 567.5 205 556.5 205 547.5 c 2
 205 520 l 1
 75 520 l 1
 75 541 l 2
 75 632 149.78125 675 227 675 c 0
 309.21875 675 380 631 380 541 c 2
 380 527 l 2
 380 470 363 418 310.415039062 403.436523438 c 1
EndSplineSet
EndChar
StartChar: quotesingle
Encoding: 39 39 55
Width: 350
Flags: W
HStem: 0 21G<177 313> 0 21G<177 313> 540 130<25.042 131.998>
VStem: 180 130<2 539.045 583.183 828>
LayerCount: 2
Fore
SplineSet
180 676 m 1xb0
 180 708 l 2
 180 753 177 828 177 828 c 1
 180 830 l 1
 310 830 l 1
 313 828 l 1
 311 802 310 593 310 548 c 2
 310 122 l 18
 310 77 311 28 313 2 c 1
 310 0 l 1
 180 0 l 1
 177 2 l 1
 179 28 180 77 180 122 c 2
 180 511 l 1
 180 529 165 540 150 540 c 0
 95 540 l 2
 65.0419921875 539.647460938 46.2841796875 538.4765625 24 537 c 1
 20 542 l 1
 20 670 l 1
 50 670 l 1
 125 670 167 630 180 580 c 1
 184 582 l 1
 182 607 180 648 180 676 c 1xb0
EndSplineSet
EndChar
StartChar: parenleft
Encoding: 40 40 75
Width: 320
Flags: HW
LayerCount: 2
Fore
SplineSet
50 34 m 4
 50 646 l 4
 50 747 97 830 240 830 c 0
 270 830 l 1
 270 730 l 1
 221 730 180 711 180 660 c 6
 180 20 l 6
 180 -31 221 -50 270 -50 c 1
 270 -150 l 1
 240 -150 l 0
 97 -150 50 -67 50 34 c 4
EndSplineSet
EndChar
StartChar: parenright
Encoding: 41 41 74
Width: 320
Flags: HW
LayerCount: 2
Fore
SplineSet
270 646 m 4
 270 34 l 4
 270 -67 223 -150 80 -150 c 0
 50 -150 l 1
 50 -50 l 1
 99.2636585143 -50 140 -30.8837890625 140 20 c 6
 140 660 l 6
 140 710.833984375 99.3675507505 730 50 730 c 1
 50 830 l 1
 80 830 l 0
 223 830 270 747 270 646 c 4
EndSplineSet
EndChar
StartChar: plus
Encoding: 43 43 79
Width: 410
Flags: HW
HStem: 0 21G<37 173> 0 21G<37 173> 565 100<170 344.766>
VStem: 40 130<2 565>
LayerCount: 2
Fore
SplineSet
360 165 m 5
 50 165 l 5
 50 265 l 5
 140 265 l 5
 140 570 l 1
 270 570 l 1
 270 265 l 5
 360 265 l 5
 360 165 l 5
EndSplineSet
EndChar
StartChar: comma
Encoding: 44 44 61
Width: 230
Flags: HW
HStem: -130 40<50 127.172> 0 120<50 140>
VStem: 50 130<-96 -90 0 120> 140 40<-78.1588 0>
LayerCount: 2
Fore
SplineSet
50 120 m 1xe0
 180 120 l 1
 180 0 l 2
 180 -96 146.466796875 -130 83 -130 c 2
 50 -130 l 1
 50 -70 l 1xe0
 79 -70 l 2
 113 -70 120 -52 120 -10 c 2
 120 0 l 1xd0
 50 0 l 1
 50 120 l 1xe0
EndSplineSet
EndChar
StartChar: hyphen
Encoding: 45 45 80
Width: 410
Flags: HW
HStem: 0 21G<37 173> 0 21G<37 173> 565 100<170 344.766>
VStem: 40 130<2 565>
LayerCount: 2
Fore
SplineSet
360 290 m 5
 50 290 l 5
 50 390 l 5
 360 390 l 5
 360 290 l 5
EndSplineSet
EndChar
StartChar: period
Encoding: 46 46 60
Width: 230
Flags: W
HStem: 0 120<50 180>
VStem: 50 130<0 120>
LayerCount: 2
Fore
SplineSet
50 120 m 1
 180 120 l 1
 180 0 l 25
 50 0 l 25
 50 120 l 1
EndSplineSet
EndChar
StartChar: slash
Encoding: 47 47 70
Width: 372
Flags: HW
LayerCount: 2
Back
SplineSet
140 190 m 5xd8
 140 285 l 5
 220 485 l 5
 220 390 l 5
 140 190 l 5xd8
EndSplineSet
Fore
SplineSet
114 0 m 5xd8
 10 0 l 1
 10 15 l 1
 256 670 l 1
 362 670 l 5
 362 655 l 5
 114 0 l 5xd8
EndSplineSet
EndChar
StartChar: one
Encoding: 49 49 59
Width: 370
Flags: W
HStem: 0 21G<37 173> 0 21G<37 173> 565 100<170 344.766>
VStem: 40 130<2 565>
LayerCount: 2
Fore
SplineSet
170 122 m 6xb0
 170 77 171 28 173 2 c 5
 170 0 l 5
 40 0 l 5
 37 2 l 5
 39 28 40 77 40 122 c 14
 40 543 l 2
 40 593 39 641 37 663 c 1
 40 665 l 1
 350 665 l 25
 350 560 l 17
 346 557 l 1
 320 562 273 565 242 565 c 2
 170 565 l 1
 170 122 l 6xb0
EndSplineSet
EndChar
StartChar: two
Encoding: 50 50 64
Width: 380
Flags: HW
LayerCount: 2
Fore
SplineSet
350 144 m 0
 350 53 313 0 210 0 c 0
 180 0 77 0 30 0 c 1
 30 105 l 1
 33 107 l 1
 58 104 125 100 170 100 c 0
 215 100 220 112 220 130 c 0
 220 398 l 2
 220 443 219 492 217 518 c 1
 220 520 l 1
 350 520 l 1
 353 518 l 1
 351 492 350 443 350 398 c 10
 350 144 l 0
30 526 m 0
 30 617 67 670 170 670 c 0
 200 670 303 670 350 670 c 1
 350 565 l 1
 347 563 l 1
 322 566 255 570 210 570 c 0
 165 570 160 558 160 540 c 0
 160 287 l 6
 160 242 161 193 163 167 c 5
 160 165 l 5
 30 165 l 5
 27 167 l 5
 29 193 30 242 30 287 c 14
 30 526 l 0
EndSplineSet
EndChar
StartChar: three
Encoding: 51 51 68
Width: 530
Flags: HWO
HStem: 0 100<170 200 330 360> 650 20G<37 173 197 333 357 493>
VStem: 40 130<102.115 668> 200 130<100 668> 360 130<102.115 668>
LayerCount: 2
Fore
SplineSet
200 566 m 1
 185 566 l 2
 177 566 170 561 170 552 c 2
 170 479 l 6
 170 470 177 465 185 465 c 6
 200 465 l 5
 200 566 l 1
360 552 m 2
 360 561 353 566 345 566 c 2
 330 566 l 1
 330 465 l 5
 345 465 l 6
 353 465 360 470 360 479 c 6
 360 552 l 2
345 365 m 6
 330 365 l 5
 330 200 l 1
 345 200 l 2
 353 200 360 205 360 214 c 2
 360 351 l 6
 360 360 353 365 345 365 c 6
185 365 m 6
 177 365 170 360 170 351 c 6
 170 214 l 2
 170 205 177 200 185 200 c 2
 200 200 l 1
 200 365 l 5
 185 365 l 6
460.594726562 411.998046875 m 5
 483.432617188 400.797851562 490 366.564453125 490 331 c 6
 490 234 l 2
 490 143 443 100 364 100 c 2
 330.059084454 100 l 1
 330.218927751 70.2191778445 330.810690181 39.8182946546 333 2 c 1
 330 0 l 1
 200 0 l 1
 197 2 l 1
 198.465851201 38.7334995874 199.376444362 70.279186826 199.771188916 100 c 1
 164 100 l 2
 83 100 40 143 40 234 c 2
 40 331 l 6
 40 365.459960938 46.740234375 399.037109375 69.4052734375 410.001953125 c 5
 69.4052734375 416.001953125 l 5
 46.5673828125 427.202148438 40 463.435546875 40 499 c 6
 40 532 l 2
 40 623 87 666 166 666 c 2
 366 666 l 2
 447 666 490 623 490 532 c 2
 490 499 l 6
 490 464.540039062 483.259765625 428.962890625 460.594726562 417.998046875 c 5
 460.594726562 411.998046875 l 5
EndSplineSet
EndChar
StartChar: four
Encoding: 52 52 69
Width: 350
Flags: HW
LayerCount: 2
Fore
SplineSet
330 5 m 1
 30 5 l 5
 30 110 l 5
 34 113 l 5
 60 108 107 105 138 105 c 6
 150 105 l 5
 150 520 l 2
 150 548 145 570 100 570 c 0
 85 570 68 566 33 563 c 1
 30 565 l 1
 30 670 l 1
 91 670 130 670 160 670 c 0
 243 670 280 617 280 526 c 2
 280 107.436523438 l 1
 297.388671875 108.794921875 313.950195312 110.682617188 326 113 c 1
 330 110 l 1
 330 5 l 1
EndSplineSet
EndChar
StartChar: five
Encoding: 53 53 65
Width: 380
Flags: HW
LayerCount: 2
Fore
SplineSet
200 515 m 25
 200 475 l 25
 160 475 l 25
 160 368 160 130 160 130 c 0
 160 112 165 100 210 100 c 0
 225 100 312 104 347 107 c 1
 350 105 l 1
 350 0 l 1
 289 0 180 0 150 0 c 0
 67 0 30 53 30 144 c 0
 30 393 l 18
 30 438 29 487 27 513 c 1
 30 515 l 1
 200 515 l 25
180 165 m 29
 180 205 l 29
 220 205 l 29
 220 312 220 540 220 540 c 0
 220 558 215 570 170 570 c 0
 155 570 68 566 33 563 c 1
 30 565 l 1
 30 670 l 1
 91 670 200 670 230 670 c 0
 313 670 350 617 350 526 c 0
 350 287 l 22
 350 242 351 193 353 167 c 5
 350 165 l 5
 180 165 l 29
EndSplineSet
EndChar
StartChar: six
Encoding: 54 54 57
Width: 380
Flags: HW
HStem: -5 100<162.05 218.453> 463 52<126 256> 650 20G<123 259>
VStem: 30 130<97.074 412.912> 126 130<463 668> 221 129<97.0883 412.926>
LayerCount: 2
Fore
SplineSet
190 95 m 0xf4
 205 95 220 107 220 125 c 0
 220 144.424804688 220 373.575195312 220 393 c 0
 220 411 205 423 190 423 c 4
 175 423 160 411 160 393 c 0
 160 373.575195312 160 144.424804688 160 125 c 0
 160 106.404296875 174.294921875 95 190 95 c 0xf4
30 129 m 0
 30 200.633789062 30 317.365234375 30 389 c 0
 30 480.09375 106.916015625 523 190 523 c 0
 273.146484375 523 350 480.143554688 350 389 c 0
 350 317.231445312 350 200.76953125 350 129 c 0
 350 37.90625 273.083984375 -5 190 -5 c 0
 106.853515625 -5 30 37.8564453125 30 129 c 0
126 670 m 1xe8
 256 670 l 1
 259 668 l 1
 256.96484375 617 256 576 256 536 c 2
 256 471 l 9
 126 471 l 17
 126 538 l 2
 126 579 125.971679688 616.666992188 123 668 c 1
 126 670 l 1xe8
EndSplineSet
EndChar
StartChar: seven
Encoding: 55 55 58
Width: 510
Flags: HW
HStem: 0 21G<187 323> 0 21G<187 323> 575 100<116.5 189.529 320.145 396.5>
VStem: 30 130<362 572.885> 190 130<2 574.996> 350 130<362 572.885>
CounterMasks: 1 1c
LayerCount: 2
Fore
SplineSet
480 442 m 0xbc
 480 395 481 344 483 322 c 1
 480 320 l 1
 350 320 l 1
 347 322 l 1
 349 348 350 397 350 442 c 2
 350 561 l 0
 350 570 343 575 335 575 c 0
 327 575 320 570 320 561 c 0
 320 415 320 268 320 122 c 0
 320 75 321 24 323 2 c 1
 320 0 l 1
 190 0 l 1
 187 2 l 1
 189 28 190 77 190 122 c 2
 190 122 190 551 190 561 c 0
 190 570 183 575 175 575 c 0
 167 575 160 570 160 561 c 0
 160 442 l 0
 160 395 161 344 163 322 c 1
 160 320 l 1
 30 320 l 1
 27 322 l 1
 29 348 30 397 30 442 c 2
 30 541 l 0
 30 632 77 675 156 675 c 0
 192.075195312 675 234.727539062 665.904296875 253 636 c 1
 259 636 l 1
 277 666 318 675 356 675 c 0
 437 675 480 632 480 541 c 0
 480 442 l 0xbc
EndSplineSet
EndChar
StartChar: eight
Encoding: 56 56 66
Width: 370
Flags: HW
HStem: 0 21G<37 173> 0 21G<37 173> 565 100<170 344.766>
VStem: 40 130<2 565>
LayerCount: 2
Fore
SplineSet
350 425 m 1
 348 403 347 348 347 298 c 2
 347 122 l 18
 347 77 348 28 350 2 c 1
 347 0 l 1
 217 0 l 1
 214 2 l 1
 216 28 217 77 217 122 c 2xb0
 217 320 l 1
 145 320 l 2
 114 320 67 317 41 312 c 1
 37 315 l 1
 39 337 40 392 40 442 c 2
 40 548 l 18
 40 593 39 642 37 668 c 1
 40 670 l 1
 170 670 l 1
 173 668 l 1
 171 642 170 593 170 548 c 2xb0
 170 420 l 1
 242 420 l 2
 273 420 320 423 346 428 c 1
 350 425 l 1
EndSplineSet
EndChar
StartChar: nine
Encoding: 57 57 67
Width: 380
Flags: HW
LayerCount: 2
Fore
SplineSet
220 125 m 0
 220 423 l 25
 211 423 205 423 190 423 c 0
 175 423 160 411 160 393 c 0
 160 373.575195312 160 144.424804688 160 125 c 0
 160 106.404296875 175.294921875 95 191 95 c 0xf4
 206 95 220 107 220 125 c 0
170 570 m 0
 155 570 68 566 33 563 c 1
 30 565 l 1
 30 670 l 1
 91 670 180 670 210 670 c 0
 303 670 350 617 350 496 c 0
 350 496 350 200.76953125 350 129 c 0
 350 37.90625 273.083984375 -5 190 -5 c 0
 106.853515625 -5 30 37.8564453125 30 129 c 0
 30 200.633789062 30 317.365234375 30 389 c 0
 30 480.09375 106.916015625 523 190 523 c 0
 220 523 l 25
 220 555.64463002 214.691098709 570 170 570 c 0
EndSplineSet
EndChar
StartChar: colon
Encoding: 58 58 62
Width: 230
Flags: HW
HStem: 0 120<50 180>
VStem: 50 130<0 120>
LayerCount: 2
Fore
SplineSet
50 670 m 1
 180 670 l 1
 180 550 l 25
 50 550 l 25
 50 670 l 1
50 120 m 1
 180 120 l 1
 180 0 l 25
 50 0 l 25
 50 120 l 1
EndSplineSet
EndChar
StartChar: less
Encoding: 60 60 84
Width: 500
Flags: HW
LayerCount: 2
Fore
SplineSet
450 124 m 1
 450 0 l 1
 435 0 l 1
 50 298 l 1
 50 372 l 1
 435 670 l 1
 450 670 l 1
 450 546 l 1
 154.287109375 338 l 5
 154.287109375 332 l 5
 450 124 l 1
EndSplineSet
EndChar
StartChar: equal
Encoding: 61 61 81
Width: 410
Flags: HW
HStem: 0 21G<37 173> 0 21G<37 173> 565 100<170 344.766>
VStem: 40 130<2 565>
LayerCount: 2
Fore
SplineSet
360 165 m 5
 50 165 l 5
 50 265 l 5
 100.854492188 265 l 5
 244.373046875 415 l 1
 50 415 l 1
 50 515 l 1
 360 515 l 1
 360 415 l 1
 310 415 l 1
 167.716796875 265 l 5
 360 265 l 5
 360 165 l 5
EndSplineSet
EndChar
StartChar: greater
Encoding: 62 62 85
Width: 500
Flags: HW
LayerCount: 2
Fore
SplineSet
50 546 m 1
 50 670 l 1
 65 670 l 1
 450 372 l 1
 450 298 l 1
 65 0 l 1
 50 0 l 1
 50 124 l 1
 346 332 l 1
 346 338 l 1
 50 546 l 1
EndSplineSet
EndChar
StartChar: question
Encoding: 63 63 13
Width: 460
Flags: HW
HStem: -155 100<181.962 238.442> 540 130<54.802 159.496>
VStem: 50 130<-52.8848 422.56> 240 130<-52.8848 422.862 543.607 828>
LayerCount: 2
Fore
SplineSet
70 -21 m 0
 70 51 70 319 70 391 c 0
 70 463 119 505 180 519 c 1
 179 535 162 540 145 540 c 0
 115 540 91 536 74 535 c 1
 70 540 l 1
 70 670 l 1
 100 670 l 2
 175 670 237 642 245 542 c 1
 250 542 l 1
 257 551 260 574 260 616 c 2
 260 726 l 2
 260 756 259 799 257 828 c 1
 260 830 l 1
 390 830 l 1
 390 589 l 2
 390 545 376 504 352 485 c 1
 352 479 l 1
 375 460 390 429 390 391 c 0
 390 319 390 51 390 -21 c 0
 390 -112 313 -155 230 -155 c 0
 147 -155 70 -112 70 -21 c 0
231 -55 m 0
 246 -55 261 -43 261 -25 c 0
 261 -6 260 376 260 395 c 0
 260 413 245 425 230 425 c 0
 215 425 200 413 200 395 c 0
 200 376 200 -6 200 -25 c 0
 200 -44 215 -55 231 -55 c 0
EndSplineSet
EndChar
StartChar: at
Encoding: 64 64 73
Width: 650
Flags: HW
HStem: 0 21G<37 173 227 363> 583 92<198.955 277.979>
VStem: 37 130<3.03554 580.844 624 668> 40 130<2 581.967 624 668> 230 130<2 580.16>
LayerCount: 2
Fore
SplineSet
395 320 m 25x3e
 395 360 l 25
 509 360 l 25
 506 320 l 25
 395 320 l 25x3e
580 139 m 0
 580 48 543 -5 460 -5 c 0
 430 -5 400 -4 390 -3 c 1
 390 100 l 1
 392 102 l 1
 397 98 405 95 421 95 c 0
 436 95 451 107 451 125 c 0
 450 543 l 0
 450 566 429 583 410 583 c 0
 391 583 370 566 370 543 c 0
 370 524 370 122 370 122 c 2
 370 72 371 24 373 2 c 1
 370 0 l 1
 240 0 l 1
 237 2 l 1
 239 28 240 77 240 122 c 2
 240 560 l 0
 240 569 233 576 225 576 c 0
 217 576 210 569 210 560 c 0
 210 122 l 2xd8
 210 78 211 24 213 2 c 1
 210 0 l 1
 80 0 l 1xd8
 77 2 l 1xe8
 79 28 80 77 80 122 c 2
 80 548 l 2xd8
 80 593 79 642 77 668 c 1xe8
 80 670 l 9xd8
 205 670 l 25
 205 670 207 638 207 624 c 1xe8
 211 622 l 1
 233 660 255 675 281 675 c 0
 332 675 356 645 365 622 c 1
 371 622 l 1
 393 660 445 675 471 675 c 0
 537 675 580 632 580 541 c 0
 580 139 l 0
EndSplineSet
EndChar
StartChar: F
Encoding: 70 70 28
Width: 400
Flags: W
HStem: -145 100<170 354.766> -15 100<172.836 230> 575 100<172.047 227.961>
VStem: 35 5<32 34.8727> 40 130<-45 -16.5403 112 572.912> 230 130<87.1152 572.926>
LayerCount: 2
Fore
SplineSet
230 545 m 4xec
 230 563 215 575 200 575 c 4
 185 575 170 563 170 545 c 4
 170 525.575195312 170 232 170 232 c 6
 170 185 171 134 173 112 c 5
 170 110 l 5xec
 129 108 73 89 40 32 c 5
 35 34 l 5xf4
 38 60 40 120 40 232 c 6
 40 232 40 469.365234375 40 541 c 4
 40 632.09375 116.916015625 675 200 675 c 4
 283.146484375 675 360 632.143554688 360 541 c 4
 360 469.231445312 360 191 360 119 c 4
 360 28 315 -15 226 -15 c 4
 200 -15 l 4
 180 -15 170 -27 170 -45 c 13
 252 -45 l 6
 283 -45 330 -42 356 -37 c 5
 360 -40 l 13
 360 -145 l 29
 169 -145 l 6
 119 -145 64 -147 42 -149 c 5
 40 -145 l 5
 40 -69 l 6
 40 34 100 85 210 85 c 4
 221.361912228 85 230 87.0087890625 230 99 c 4
 230 109 230 525.575195312 230 545 c 4xec
141 710 m 1xe4
 137 713 l 25
 203 830 l 1
 317 830 l 1
 320 826 l 25
 217 710 l 1
 141 710 l 1xe4
EndSplineSet
EndChar
StartChar: R
Encoding: 82 82 11
Width: 350
Flags: HW
HStem: 0 21G<37 173> 360 130<218.002 324.913> 705 120<46.2543 213.481>
VStem: 40 290<362 400 603.687 670 705 785.036> 40 130<2 359.045 403.183 559>
LayerCount: 2
Fore
SplineSet
200 365 m 0xf0
 185 365 170 354 170 336 c 1
 170 122 l 2
 170 77 171 28 173 2 c 1
 170 0 l 1
 40 0 l 1
 37 2 l 1
 39 28 40 77 40 122 c 10xe8
 40 670 l 25
 149 670 196 669 196 669 c 0
 209 669 215 677 215 688 c 0
 215 698 208 705 196 705 c 0
 143 705 l 18
 106.01953125 705 71.638671875 701.909179688 45 696 c 1
 40 705 l 25xf0
 40 825 l 1
 143 825 201 825 201 825 c 0
 292 825 335 779 335 695 c 0
 335 602.517578125 290.256835938 559 170 559 c 1
 170 501 l 1
 170 473 168 432 166 407 c 1
 170 405 l 1xe8
 183 455 225 495 300 495 c 1
 330 495 l 1
 330 367 l 1
 326 362 l 1
 302.715820312 363.4765625 284.958007812 364.647460938 255 365 c 2
 200 365 l 0xf0
EndSplineSet
EndChar
StartChar: V
Encoding: 86 86 23
Width: 530
Flags: W
HStem: -145 100<170 484.766> -15 100<172.836 360.14> 575 100<126.5 199.529 330.145 406.5>
VStem: 35 5<32 34.8727> 40 130<-45 -16.5403 112 572.885> 200 130<112 574.996> 362 128<87.1152 572.885>
LayerCount: 2
Fore
SplineSet
206 710 m 5xe6
 202 713 l 29
 268 830 l 5
 382 830 l 5
 385 826 l 29
 282 710 l 5
 206 710 l 5xe6
169 -145 m 2
 119 -145 64 -147 42 -149 c 1
 40 -145 l 1
 40 -69 l 2
 40 34 106 85 210 85 c 0
 293 85 338 85 346 85 c 0
 354 85 362 90 362 99 c 0
 362 109 360 551 360 561 c 0
 360 570 352 575 344 575 c 0
 336 575 330 570 330 561 c 0
 330 415 330 378 330 232 c 0
 330 185 331 134 333 112 c 1
 330 110 l 1
 200 110 l 1
 197 112 l 1
 199 138 200 187 200 232 c 2
 200 232 200 551 200 561 c 0
 200 570 192 575 184 575 c 0
 176 575 170 570 170 561 c 0
 170 551 170 232 170 232 c 2
 170 185 171 134 173 112 c 1
 170 110 l 1xee
 129 110 73 94 40 32 c 1
 35 34 l 1xf6
 38 60 40 120 40 232 c 2
 40 232 40 469 40 541 c 0
 40 632 87 675 166 675 c 0
 202.074887447 675 244.727539062 665.904296875 263 636 c 1
 269 636 l 1
 287 666 328 675 366 675 c 0
 447 675 490 632 490 541 c 0
 490 469 490 191 490 119 c 0
 490 28 445 -15 356 -15 c 0
 277 -15 215 -15 200 -15 c 0
 180 -15 170 -27 170 -45 c 9xee
 382 -45 l 2
 413 -45 460 -42 486 -37 c 1
 490 -40 l 9
 490 -145 l 25
 169 -145 l 2
EndSplineSet
EndChar
StartChar: bracketleft
Encoding: 91 91 76
Width: 400
Flags: W
HStem: 0 21G<37 173> 0 21G<37 173> 565 100<170 344.766>
VStem: 40 130<2 565>
LayerCount: 2
Fore
SplineSet
350 -145 m 1
 50 -145 l 1
 50 825 l 5
 350 825 l 29
 350 725 l 21
 180 725 l 5
 180 -45 l 1
 350 -45 l 1
 350 -145 l 1
EndSplineSet
EndChar
StartChar: backslash
Encoding: 92 92 77
Width: 600
Flags: HW
HStem: -130 40<50 127.172> 0 120<50 140>
VStem: 50 130<-96 -90 0 120> 140 40<-78.1588 0>
LayerCount: 2
Fore
SplineSet
226 830 m 1
 356 830 l 1
 359 828 l 1
 357 777 356 736 356 696 c 2
 356 665 l 1
 520 665 l 1
 520 560 l 1
 516 557 l 1
 490 562 443 565 412 565 c 2
 355 565 l 1
 355 454 l 1
 355 454 357 422 357 408 c 1
 361 406 l 1
 383 444 415 459 441 459 c 0
 497 459 520 424 520 340 c 2
 520 122 l 2
 520 115 521 24 523 2 c 1
 520 0 l 1
 390 0 l 1
 387 2 l 1
 389 28 390 116 390 122 c 2
 391 344 l 2
 391 353 384 360 376 360 c 0
 368 360 361 353 361 344 c 2
 360 122 l 2
 360 116 361 24 363 2 c 1
 360 0 l 1
 230 0 l 1
 227 2 l 1
 229 28 230 111 230 122 c 2
 230 565 l 1
 188 565 l 2
 157 565 110 562 84 557 c 1
 80 560 l 1
 80 665 l 1
 226 665 l 1
 226 698 l 2
 226 739 226 777 223 828 c 1
 226 830 l 1
70 359 m 1
 200 359 l 1
 200 239 l 2
 200 143 166 109 103 109 c 2
 70 109 l 1
 70 169 l 1
 99 169 l 2
 133 169 140 187 140 229 c 2
 140 239 l 1
 70 239 l 1
 70 359 l 1
EndSplineSet
EndChar
StartChar: bracketright
Encoding: 93 93 78
Width: 400
Flags: W
HStem: 659 21G<227 363> 659 21G<227 363> 15 100<55 230>
VStem: 230 130<115 678>
LayerCount: 2
Fore
SplineSet
50 825 m 1
 350 825 l 1
 350 -145 l 5
 50 -145 l 29
 50 -45 l 21
 220 -45 l 5
 220 725 l 1
 50 725 l 1
 50 825 l 1
EndSplineSet
EndChar
StartChar: a
Encoding: 97 97 1
Width: 390
Flags: HW
HStem: 5 100<170 226.948> 333 92<198.955 294> 565 100<170 344.766>
VStem: 40 130<105 331.967 375.183 565> 231 129<107.088 330.16>
LayerCount: 2
Back
SplineSet
350 124 m 4
 350 33 315 -10 249 -10 c 4
 223 -10 183 5 161 43 c 5
 157 41 l 5
 157 37 155.8 13 155 -1 c 5
 30 0 l 29
 30 670 l 5
 340 670 l 29
 340 565 l 21
 336 562 l 5
 310 567 263 570 232 570 c 6
 160 570 l 5
 160 468 l 6
 160 440 159 399 157 374 c 5
 161 372 l 5
 183 410 225 425 251 425 c 4
 317 425 350 382 350 291 c 4
 350 219 350 196 350 124 c 4
160 112 m 4
 160 94 175 82 190 82 c 4
 205 82 220 94 220 112 c 4
 220 131 220 284 220 303 c 4
 220 321 205 333 190 333 c 4
 175 333 160 321 160 303 c 4
 160 284 160 131 160 112 c 4
EndSplineSet
Fore
SplineSet
201 105 m 0
 216 105 231 117 231 135 c 0
 231 154.424804688 230 294 230 313 c 0
 230 331 215 343 200 343 c 0
 185 343 170 331 170 313 c 0
 170 294 170 182 170 105 c 25
 182 105 185.294921875 105 201 105 c 0
350 665 m 25
 350 560 l 17
 346 557 l 1
 320 562 273 565 242 565 c 2
 170 565 l 1
 170 468 l 2
 170 440 169 409 167 384 c 1
 171 382 l 1
 193 420 235 435 261 435 c 0
 327 435 360 392 360 301 c 0
 360 229 360 210.76953125 360 139 c 0
 360 47.90625 283.083984375 5 200 5 c 0
 116.853515625 5 102 5 40 5 c 1
 37 7 l 1
 39.3955078125 33.3505859375 40 102 40 127 c 2
 40 543 l 2
 40 593 39 641 37 663 c 1
 40 665 l 1
 350 665 l 25
EndSplineSet
EndChar
StartChar: b
Encoding: 98 98 2
Width: 380
Flags: W
HStem: -5 100<162.05 218.453> 623 52<126 256>
VStem: 30 130<97.074 572.912> 126 130<623 828> 221 129<97.0883 572.926>
LayerCount: 2
Back
SplineSet
180 120 m 4
 190 120 190 120 200 120 c 4
 210 120 220 128 220 140 c 4
 220 152 220 518 220 530 c 4
 220 542 210 550 200 550 c 4
 190 550 190 550 180 550 c 4
 170 550 160 542 160 530 c 4
 160 518 160 152 160 140 c 4
 160 128 170 120 180 120 c 4
120 0 m 4
 75 0 30 39 30 90 c 4
 30 140.904296875 30 529.095703125 30 580 c 4
 30 631 75 670 120 670 c 4
 165 670 215 670 260 670 c 4
 305 670 350 631 350 580 c 4
 350 529 350 141 350 90 c 4
 350 39 305 0 260 0 c 4
 215 0 165 0 120 0 c 4
EndSplineSet
Fore
SplineSet
191 95 m 0xe8
 206 95 221 107 221 125 c 0
 221 144.424804688 220 525.575195312 220 545 c 0
 220 563 205 575 190 575 c 0
 175 575 160 563 160 545 c 0
 160 525.575195312 160 144.424804688 160 125 c 0
 160 106.404296875 175.294921875 95 191 95 c 0xe8
30 129 m 0
 30 200.633789062 30 469.365234375 30 541 c 0
 30 632.09375 106.916015625 675 190 675 c 0
 273.146484375 675 350 632.143554688 350 541 c 0
 350 469.231445312 350 200.76953125 350 129 c 0
 350 37.90625 273.083984375 -5 190 -5 c 0
 106.853515625 -5 30 37.8564453125 30 129 c 0
126 830 m 5xd0
 256 830 l 5
 259 828 l 5
 256.96484375 777 256 736 256 696 c 6
 256 623 l 13
 126 623 l 21
 126 698 l 6
 126 739 125.971679688 776.666992188 123 828 c 5
 126 830 l 5xd0
EndSplineSet
EndChar
StartChar: c
Encoding: 99 99 5
Width: 380
Flags: HW
HStem: -155 100<161.962 218.442> 260 100<72 204.071> 567.5 107.5<165.203 209.887>
VStem: 30 130<-52.8848 105 520 565.332> 210 130<383.786 565.332> 221 129<-52.3349 249.106>
LayerCount: 2
Fore
SplineSet
270.415039062 333.436523438 m 5xf8
 270.415039062 327.436523438 l 5
 329 305 350 255 350 191 c 4
 350 119 350 7 350 7 c 2
 350 -109 267 -155 184 -155 c 0
 101 -155 30 -114 30 -23 c 2
 30 0 l 1
 160 0 l 1
 160 -25 l 2
 160 -44 175 -55 191 -55 c 0
 206 -55 221 -43 221 -25 c 0xf4
 221 -11.2666015625 220 186 220 205 c 4
 220 232.586914062 197.999023438 256 172 256 c 7
 131 256 97 255 72 253 c 5
 70 256 l 5
 70 355 l 5
 72 357 l 5
 98.1572265625 356 127.921875 356 164 356 c 7
 187.7578125 356 210 368.811523438 210 405 c 4
 210 547.5 l 0
 210 556.5 199.5 567.5 187 567.5 c 0
 174.5 567.5 165 556.5 165 547.5 c 2
 165 520 l 1
 35 520 l 1
 35 541 l 2
 35 632 109.78125 675 187 675 c 0
 269.21875 675 340 632 340 541 c 2
 340 459 l 4
 340 402 323 351 270.415039062 333.436523438 c 5xf8
EndSplineSet
EndChar
StartChar: d
Encoding: 100 100 4
Width: 530
Flags: W
HStem: 0 100<170 200 330 360> 650 20G<37 173 197 333 357 493>
VStem: 40 130<102.115 668> 200 130<100 668> 360 130<102.115 668>
CounterMasks: 1 38
LayerCount: 2
Fore
SplineSet
170 114 m 0
 170 105 177 100 185 100 c 0
 200 100 l 17
 200 246 200 402 200 548 c 0
 200 595 199 646 197 668 c 1
 200 670 l 1
 330 670 l 1
 333 668 l 1
 331 642 330 593 330 548 c 2
 330 548 330 110 330 100 c 9
 345 100 l 0
 353 100 360 105 360 114 c 0
 360 124 360 402 360 548 c 0
 360 595 359 646 357 668 c 1
 360 670 l 1
 490 670 l 1
 493 668 l 1
 491 642 490 593 490 548 c 2
 490 548 490 206 490 134 c 0
 490 43 443 0 364 0 c 2
 164 0 l 2
 83 0 40 43 40 134 c 0
 40 206 40 402 40 548 c 0
 40 595 39 646 37 668 c 1
 40 670 l 1
 170 670 l 1
 173 668 l 1
 171 642 170 593 170 548 c 2
 170 548 170 124 170 114 c 0
EndSplineSet
EndChar
StartChar: e
Encoding: 101 101 17
Width: 400
Flags: W
HStem: -5 92<122.021 201.045>
VStem: 40 130<89.8403 668> 230 130<2 46 88.033 668> 233 130<2 46 89.1562 666.945>
LayerCount: 2
Fore
SplineSet
230 548 m 2xe0
 230 592 229 646 227 668 c 1
 230 670 l 1
 360 670 l 1xe0
 363 668 l 1xd0
 361 642 360 593 360 548 c 2
 360 122 l 2xe0
 360 77 361 28 363 2 c 1xd0
 360 0 l 9xe0
 235 0 l 25
 235 0 233 32 233 46 c 1xd0
 229 48 l 1
 207 10 165 -5 139 -5 c 0
 73 -5 40 38 40 129 c 0
 40 548 l 6
 40 598 39 646 37 668 c 5
 40 670 l 5
 170 670 l 1
 173 668 l 1
 171 642 170 593 170 548 c 2
 170 117 l 0
 170 99 185 87 200 87 c 0
 215 87 230 99 230 117 c 0
 230 548 l 2xe0
EndSplineSet
EndChar
StartChar: f
Encoding: 102 102 24
Width: 530
Flags: W
HStem: -145 100<170 484.766> -15 100<172.836 360.14> 575 100<126.5 199.529 330.145 406.5>
VStem: 35 5<32 34.8727> 40 130<-45 -16.5403 112 572.885> 200 130<112 574.996> 362 128<87.1152 572.885>
LayerCount: 2
Back
SplineSet
230 545 m 4xec
 230 563 215 575 200 575 c 4
 185 575 170 563 170 545 c 4
 170 525.575195312 170 232 170 232 c 6
 170 185 171 134 173 112 c 5
 170 110 l 5xec
 129 110 73 94 40 32 c 5
 35 34 l 5xf4
 38 60 40 120 40 232 c 6
 40 232 40 469.365234375 40 541 c 4
 40 632.09375 116.916015625 675 200 675 c 4
 283.146484375 675 360 632.143554688 360 541 c 4
 360 469.231445312 360 191 360 119 c 4
 360 28 315 -15 226 -15 c 4
 200 -15 l 4
 180 -15 170 -27 170 -45 c 13
 252 -45 l 6
 283 -45 330 -42 356 -37 c 5
 360 -40 l 13
 360 -145 l 29
 169 -145 l 6
 119 -145 64 -147 42 -149 c 5
 40 -145 l 5
 40 -69 l 6
 40 34 106 85 210 85 c 4
 221.361912228 85 230 87.0087890625 230 99 c 4
 230 109 230 525.575195312 230 545 c 4xec
EndSplineSet
Fore
SplineSet
169 -145 m 6xee
 119 -145 64 -147 42 -149 c 5
 40 -145 l 5
 40 -69 l 6
 40 34 106 85 210 85 c 4
 293 85 338 85 346 85 c 4
 354 85 362 90 362 99 c 4
 362 109 360 551 360 561 c 4
 360 570 352 575 344 575 c 4
 336 575 330 570 330 561 c 4
 330 415 330 378 330 232 c 4
 330 185 331 134 333 112 c 5
 330 110 l 5
 200 110 l 5
 197 112 l 5
 199 138 200 187 200 232 c 6
 200 232 200 551 200 561 c 4
 200 570 192 575 184 575 c 4
 176 575 170 570 170 561 c 4
 170 551 170 232 170 232 c 6
 170 185 171 134 173 112 c 5
 170 110 l 5xee
 129 110 73 94 40 32 c 5
 35 34 l 5xf6
 38 60 40 120 40 232 c 6
 40 232 40 469 40 541 c 4
 40 632 87 675 166 675 c 4
 202.074887447 675 244.727539062 665.904296875 263 636 c 5
 269 636 l 5
 287 666 328 675 366 675 c 4
 447 675 490 632 490 541 c 4
 490 469 490 191 490 119 c 4
 490 28 445 -15 356 -15 c 4
 277 -15 215 -15 200 -15 c 4
 180 -15 170 -27 170 -45 c 13
 382 -45 l 6
 413 -45 460 -42 486 -37 c 5
 490 -40 l 13
 490 -145 l 29
 169 -145 l 6xee
EndSplineSet
EndChar
StartChar: g
Encoding: 103 103 30
Width: 400
Flags: W
HStem: -150 90<70 180 220 330> 0 21G<37 173 227 363> 565 100<170 230>
VStem: 40 130<2 565> 70 110<-150 -60> 220 110<-150 -60> 230 130<2 565>
LayerCount: 2
Fore
SplineSet
220 -150 m 25xe4
 220 -60 l 25
 330 -60 l 25
 330 -150 l 25
 220 -150 l 25xe4
70 -150 m 25xe8
 70 -60 l 25
 180 -60 l 25
 180 -150 l 25
 70 -150 l 25xe8
170 122 m 2xf2
 170 80 171.009765625 23.58203125 173 2 c 1
 170 0 l 1
 40 0 l 1
 37 2 l 1
 39 28 40 77 40 122 c 2
 40 543 l 2
 40 588 39 637 37 663 c 1
 40 665 l 1
 360 665 l 1
 363 663 l 1
 363 663 360 588 360 543 c 2
 360 122 l 2
 360 72 361.009765625 23.58203125 363 2 c 1
 360 0 l 1
 230 0 l 1
 227 2 l 1
 229 28 230 77 230 122 c 2
 230 565 l 1
 170 565 l 1
 170 122 l 2xf2
EndSplineSet
EndChar
StartChar: h
Encoding: 104 104 14
Width: 380
Flags: HW
HStem: -5 100<162.058 217.942> 575 100<161.558 218.038>
VStem: 30 129<97.1152 572.885> 220 130<97.1152 255 430 572.885>
LayerCount: 2
Fore
SplineSet
189 575 m 0
 174 575 159 563 159 545 c 0
 159 526 160 144 160 125 c 0
 160 107 175 95 190 95 c 0
 205 95 220 107 220 125 c 2
 220 245 l 5
 350 245 l 5
 350 129 l 2
 350 38 273 -5 190 -5 c 0
 107 -5 30 38 30 129 c 0
 30 201 30 469 30 541 c 0
 30 632 107 675 190 675 c 0
 273 675 350 632 350 541 c 2
 350 430 l 1
 220 430 l 1
 220 545 l 2
 220 564 205 575 189 575 c 0
EndSplineSet
EndChar
StartChar: i
Encoding: 105 105 16
Width: 400
Flags: W
HStem: 0 21G<37 173 227 363> 583 92<198.955 277.979>
VStem: 37 130<3.03554 580.844 624 668> 40 130<2 581.967 624 668> 230 130<2 580.16>
LayerCount: 2
Fore
SplineSet
170 122 m 6xd8
 170 78 171.009765625 23.58203125 173 2 c 5
 170 0 l 5
 40 0 l 5xd8
 37 2 l 5xe8
 39 28 40 77 40 122 c 6
 40 548 l 2xd8
 40 593 39 642 37 668 c 1xe8
 40 670 l 9xd8
 165 670 l 25
 165 670 167 638 167 624 c 1xe8
 171 622 l 1
 193 660 235 675 261 675 c 0
 327 675 360 632 360 541 c 0
 360 122 l 6
 360 72 361.009765625 23.58203125 363 2 c 5
 360 0 l 5
 230 0 l 5
 227 2 l 5
 229 28 230 77 230 122 c 6
 230 553 l 0
 230 571 215 583 200 583 c 0
 185 583 170 571 170 553 c 0
 170 122 l 6xd8
EndSplineSet
EndChar
StartChar: j
Encoding: 106 106 18
Width: 400
Flags: W
HStem: -5 92<106 201.045>
VStem: 40 130<89.8403 668> 230 130<-150 45.3292 88.033 668>
LayerCount: 2
Fore
SplineSet
233 46 m 1
 229 48 l 1
 207 10 165 -5 139 -5 c 0
 73 -5 40 38 40 129 c 0
 40 548 l 2
 40 598 39 646 37 668 c 1
 40 670 l 1
 170 670 l 1
 173 668 l 1
 171 642 170 593 170 548 c 2
 170 117 l 0
 170 99 185 87 200 87 c 0
 215 87 230 99 230 117 c 0
 230 548 l 2
 230 592 229 646 227 668 c 1
 230 670 l 1
 360 670 l 1
 363 668 l 1
 361 642 360 593 360 548 c 2
 360 -30 l 2
 360 -77 361.009765625 -128.41796875 363 -150 c 1
 360 -152 l 1
 230 -152 l 1
 227 -150 l 1
 229 -124 230 -75 230 -30 c 10
 230 -19 l 18
 230 -2 231 32 233 46 c 1
EndSplineSet
EndChar
StartChar: k
Encoding: 107 107 20
Width: 390
Flags: W
HStem: 0 21G<37 173 227 363> 565 100<170 230>
VStem: 40 130<2 565> 230 130<2 565>
LayerCount: 2
Fore
SplineSet
170 122 m 2
 170 80 171.009765625 23.58203125 173 2 c 1
 170 0 l 1
 40 0 l 1
 37 2 l 1
 39 28 40 77 40 122 c 2
 40 543 l 2
 40 588 39 637 37 663 c 1
 40 665 l 1
 360 665 l 1
 363 663 l 1
 363 663 360 588 360 543 c 2
 360 122 l 2
 360 72 361.009765625 23.58203125 363 2 c 1
 360 0 l 1
 230 0 l 1
 227 2 l 1
 229 28 230 77 230 122 c 2
 230 565 l 1
 170 565 l 1
 170 122 l 2
EndSplineSet
EndChar
StartChar: l
Encoding: 108 108 32
Width: 380
Flags: HW
HStem: -5 100<161.962 218.442> 322 100<72 204.071> 567.5 107.5<165.203 209.887>
VStem: 30 130<97.1152 155 520 565.332> 210 130<446.739 565.101> 221 129<97.6651 311.106>
LayerCount: 2
Back
SplineSet
290.415039062 345.436523438 m 5
 290.415039062 339.436523438 l 5
 329.514648438 323.1640625 350 266.393554688 350 227 c 4
 350 155 350 129 350 129 c 6
 350 38 273 -5 190 -5 c 4
 107 -5 30 38 30 129 c 6
 30 155 l 5
 160 155 l 5
 160 125 l 6
 160 106 175 95 191 95 c 4
 206 95 221 107 221 125 c 4
 221 138.733784712 220 222 220 241 c 4
 220 268.586914062 197.999389025 292 172 292 c 7
 131 292 97 291 72 289 c 5
 70 292 l 5
 70 391 l 5
 72 393 l 5
 101 392 134 392 174 392 c 7
 198.341303352 392 220 414.811523438 220 441 c 4
 220 460 220 539.733784712 220 545 c 4
 220 563 205 575 190 575 c 4
 175 575 160 563 160 545 c 6
 160 520 l 5
 30 520 l 5
 30 541 l 6
 30 632 107 675 190 675 c 4
 273 675 350 632 350 541 c 6
 350 541 350 527 350 455 c 4
 350 413.348632812 328.869140625 357.7734375 290.415039062 345.436523438 c 5
EndSplineSet
Fore
SplineSet
270.415039062 403.436523438 m 5xf8
 270.415039062 397.436523438 l 5
 332 375 350 324 350 260 c 4
 350 188 350 151 350 151 c 2
 350 40 266 -5 183 -5 c 0
 100 -5 30 35 30 126 c 2
 30 155 l 1
 160 155 l 1
 160 125 l 2
 160 106 175 95 191 95 c 0
 206 95 221 107 221 125 c 0xf4
 221 138.733784712 220 255 220 274 c 4
 220 301.586914062 197.999023438 325 172 325 c 7
 131 325 97 324 72 322 c 5
 70 325 l 5
 70 424 l 5
 72 426 l 5
 98.1572265625 425 127.921875 425 164 425 c 7
 187.7578125 425 210 434.811523438 210 471 c 0
 210 547.5 l 0
 210 556.5 199.5 567.5 187 567.5 c 0
 174.5 567.5 165 556.5 165 547.5 c 2
 165 520 l 1
 35 520 l 1
 35 541 l 2
 35 632 109.78125 675 187 675 c 0
 269.21875 675 340 631 340 541 c 2
 340 527 l 0
 340 470 323 418 270.415039062 403.436523438 c 5xf8
EndSplineSet
EndChar
StartChar: m
Encoding: 109 109 3
Width: 380
Flags: HW
HStem: -5 100<161.962 218.442> 575 100<163.074 204.859> 705 120<36.2707 204.991>
VStem: 30 130<97.1152 572.885> 205 134<675.332 766> 221 129<97.1152 573.231>
LayerCount: 2
Back
SplineSet
191 95 m 4
 206 95 221 107 221 125 c 4
 221 144.424804688 220 525.575195312 220 545 c 4
 220 563 205 575 190 575 c 4
 175 575 160 563 160 545 c 4
 160 525.575195312 160 144.424804688 160 125 c 4
 160 106.404296875 175.294921875 95 191 95 c 4
30 129 m 4
 30 200.633789062 30 469.365234375 30 541 c 4
 30 632.09375 106.916015625 675 190 675 c 4
 273.146484375 675 350 632.143554688 350 541 c 4
 350 469.231445312 350 200.76953125 350 129 c 4
 350 37.90625 273.083984375 -5 190 -5 c 4
 106.853515625 -5 30 37.8564453125 30 129 c 4
EndSplineSet
Fore
SplineSet
30 129 m 0xf4
 30 201 30 469 30 541 c 0
 30 632 107 675 190 675 c 0
 194 675 198 675 201 675 c 1
 203 677 205 681 205 688 c 0
 205 698 192 705 177 705 c 2
 133 705 l 2
 96 705 62 702 35 696 c 1
 30 705 l 1
 30 825 l 1
 133 825 201 825 201 825 c 2
 292 825 339 801 339 731 c 0xf8
 339 692 319 663 300 649 c 1
 300 643 l 1
 335 617 350 580 350 541 c 0
 350 469 350 201 350 129 c 0
 350 38 273 -5 190 -5 c 0
 107 -5 30 38 30 129 c 0xf4
190 95 m 0
 205 95 220 107 220 125 c 0xf4
 220 144 220 526 220 545 c 0
 220 563 205 575 190 575 c 0
 175 575 160 563 160 545 c 0
 160 526 160 144 160 125 c 0
 160 106 174 95 190 95 c 0
EndSplineSet
EndChar
StartChar: n
Encoding: 110 110 6
Width: 520
Flags: HW
HStem: -5 21G<306.5 385.5> 0 21G<37 173> 320 40<134 246> 655 20G<306.5 386.5>
VStem: 40 130<2 320 360 668> 200 130<97.1152 320 360 572.885> 362 128<97.1152 572.885>
LayerCount: 2
Fore
SplineSet
129 320 m 29x3e
 134 360 l 29
 249 360 l 29
 246 320 l 29
 129 320 l 29x3e
345 95 m 0
 353 95 360 100 360 109 c 0
 360 119 360 551 360 561 c 0
 360 570 353 575 345 575 c 0
 337 575 330 570 330 561 c 0
 330 551 330 119 330 109 c 0
 330 99 337 95 345 95 c 0
200 129 m 0
 200 201 200 469 200 541 c 0
 200 632 267 675 346 675 c 0
 427 675 490 632 490 541 c 0
 490 469 490 201 490 129 c 0
 490 38 425 -5 346 -5 c 0xbe
 267 -5 200 38 200 129 c 0
170 122 m 2
 170 75 171.009765625 23.58203125 173 2 c 1
 170 0 l 1
 40 0 l 1x7e
 37 2 l 1
 39 28 40 77 40 122 c 2
 40 548 l 2
 40 593 39 642 37 668 c 1
 40 670 l 1
 170 670 l 1
 173 668 l 1
 173 668 170 593 170 548 c 2
 170 122 l 2
EndSplineSet
EndChar
StartChar: o
Encoding: 111 111 8
Width: 380
Flags: W
HStem: -5 100<161.962 218.442> 290 100<132 336> 575 100<162.058 217.942>
VStem: 30 130<97.1152 155 520 572.885> 221 129<97.1152 290 390 572.885> 221 115<290 390>
LayerCount: 2
Fore
SplineSet
130 290 m 5xf4
 130 390 l 5
 132 392 l 5
 183 390 224 390 264 390 c 6
 336 390 l 5
 336 290 l 5
 262 290 l 6
 221 290 183 289 132 286 c 5
 130 290 l 5xf4
191 95 m 0
 206 95 221 107 221 125 c 0
 221 144 220 526 220 545 c 0
 220 563 205 575 190 575 c 0
 175 575 160 563 160 545 c 2
 160 520 l 1
 30 520 l 1
 30 541 l 2
 30 632 107 675 190 675 c 0
 273 675 350 632 350 541 c 0
 350 469 350 201 350 129 c 0xf8
 350 38 273 -5 190 -5 c 0
 107 -5 30 38 30 129 c 2
 30 155 l 1
 160 155 l 1
 160 125 l 2
 160 106 175 95 191 95 c 0
EndSplineSet
EndChar
StartChar: p
Encoding: 112 112 33
Width: 400
Flags: HW
HStem: 0 21G<37 173 227 363> 0 21G<37 173 227 363> 296 142<171.063 228.959> 650 20G<37 173 227 363>
VStem: 40 130<2 294.694 439.423 668> 230 130<2 294.716 439.445 668>
LayerCount: 2
Back
SplineSet
360 122 m 6
 360 72 361.009765625 23.58203125 363 2 c 5
 360 0 l 5
 230 0 l 5
 227 2 l 5
 229 28 230 77 230 122 c 6
 230 122 230 246.575195312 230 266 c 4
 230 284 215 296 200 296 c 4
 185 296 170 284 170 266 c 4
 170 122 l 6
 170 78 171.009765625 23.58203125 173 2 c 5
 170 0 l 5
 40 0 l 5
 37 2 l 5
 39 28 40 77 40 122 c 6
 40 262 l 6
 40 310.254234266 61.5829335711 344.986868342 94.2326936859 366.982915988 c 5
 61.5762939229 388.970769002 40 423.707185377 40 472 c 6
 40 548 l 6
 40 598 39 646 37 668 c 5
 40 670 l 5
 170 670 l 5
 173 668 l 5
 171 642 170 593 170 548 c 6
 170 548 170 487.424804688 170 468 c 4
 170 449.404296875 185.294921875 438 201 438 c 4
 216 438 231 450 231 468 c 4
 231 487.424804688 230 548 230 548 c 6
 230 592 229 646 227 668 c 5
 230 670 l 5
 360 670 l 5
 363 668 l 5
 361 642 360 593 360 548 c 6
 360 472 l 6
 360 423.745765734 338.417066429 389.013131658 305.767306314 367.017084012 c 5
 338.423706077 345.029230998 360 310.292814623 360 262 c 6
 360 122 l 6
EndSplineSet
Fore
SplineSet
295.767578125 355.016601562 m 1xbc
 338.423828125 343.029296875 360 300.29296875 360 252 c 2
 360 122 l 2
 360 72 361.009765625 23.58203125 363 2 c 1
 360 0 l 1
 230 0 l 1
 227 2 l 1
 229 28 230 77 230 122 c 2
 230 122 230 236.575195312 230 256 c 0
 230 274 215 286 200 286 c 0
 185 286 170 274 170 256 c 0
 170 236.575195312 170 122 170 122 c 2
 170 78 171.009765625 23.58203125 173 2 c 1
 170 0 l 1
 40 0 l 1
 37 2 l 1
 39 28 40 77 40 122 c 2
 40 252 l 2
 40 300.25390625 61.5830078125 342.987304688 104.232421875 354.983398438 c 1
 104.232421875 359.983398438 l 1
 61.576171875 371.970703125 40 413.70703125 40 462 c 2
 40 548 l 2
 40 598 39 646 37 668 c 1
 40 670 l 1
 170 670 l 1
 173 668 l 1
 171 642 170 593 170 548 c 2
 170 548 170 477.424804688 170 458 c 0
 170 439.404296875 185.294921875 428 201 428 c 0
 216 428 231 440 231 458 c 0
 231 477.424804688 230 548 230 548 c 2
 230 592 229 646 227 668 c 1
 230 670 l 1
 360 670 l 1
 363 668 l 1
 361 642 360 593 360 548 c 2
 360 462 l 2
 360 413.74609375 338.416992188 372.012695312 295.767578125 360.016601562 c 1
 295.767578125 355.016601562 l 1xbc
EndSplineSet
EndChar
StartChar: q
Encoding: 113 113 22
Width: 470
Flags: HW
HStem: -3 98<32.2366 89.9586 380.041 437.763> 320 40<194 306> 575 98<33.2359 88.9586 381.041 436.764>
VStem: 91 129<99.1842 320 360 570.816> 250 129<99.1842 320 360 570.816>
LayerCount: 2
Fore
SplineSet
189 320 m 25
 194 360 l 25
 309 360 l 25
 306 320 l 25
 189 320 l 25
438 102 m 1
 440 100 l 1
 440 -3 l 1
 430 -4 400 -5 370 -5 c 0
 287 -5 250 48 250 139 c 0
 250 211 250 459 250 531 c 0
 250 622 287 675 370 675 c 0
 400 675 430 674 440 673 c 1
 440 570 l 1
 437 568 l 1
 432 571 425 575 410 575 c 0
 395 575 380 563 380 545 c 0
 380 526 379 144 379 125 c 0
 379 107 394 95 409 95 c 0
 425 95 433 98 438 102 c 1
32 102 m 5
 37 98 45 95 61 95 c 4
 76 95 91 107 91 125 c 4
 91 144 90 526 90 545 c 4
 90 563 75 575 60 575 c 4
 45 575 38 571 33 568 c 5
 30 570 l 5
 30 673 l 5
 40 674 70 675 100 675 c 4
 183 675 220 622 220 531 c 4
 220 459 220 211 220 139 c 4
 220 48 183 -5 100 -5 c 4
 70 -5 40 -4 30 -3 c 5
 30 100 l 5
 32 102 l 5
EndSplineSet
EndChar
StartChar: r
Encoding: 114 114 7
Width: 350
Flags: W
HStem: 0 21G<37 173> 0 21G<37 173> 540 130<218.002 324.958>
VStem: 40 130<2 539.045 583.183 828>
LayerCount: 2
Fore
SplineSet
170 676 m 1xb0
 170 648 168 607 166 582 c 1
 170 580 l 1
 183 630 225 670 300 670 c 1
 330 670 l 1
 330 542 l 1
 326 537 l 1
 303.715820312 538.4765625 284.958007812 539.647460938 255 540 c 2
 200 540 l 0
 185 540 170 529 170 511 c 1
 170 122 l 2
 170 77 171 28 173 2 c 1
 170 0 l 1
 40 0 l 1
 37 2 l 1
 39 28 40 77 40 122 c 10
 40 548 l 2
 40 593 39 802 37 828 c 1
 40 830 l 1
 170 830 l 1
 173 828 l 1
 173 828 170 753 170 708 c 2
 170 676 l 1xb0
EndSplineSet
EndChar
StartChar: s
Encoding: 115 115 21
Width: 390
Flags: W
HStem: 5 100<170 226.926> 565 100<170 226.926>
VStem: 40 130<105 565> 231 129<107.115 562.885>
LayerCount: 2
Fore
SplineSet
40 543 m 6
 40 568 39 637 37 663 c 1
 40 665 l 1
 102 665 117 665 200 665 c 0
 283 665 360 622 360 531 c 0
 360 459 360 211 360 139 c 0
 360 48 283 5 200 5 c 0
 117 5 102 5 40 5 c 1
 37 7 l 1
 39 33 40 102 40 127 c 2
 40 543 l 6
231 535 m 0
 231 553 216 565 201 565 c 0
 185 565 182 565 170 565 c 25
 170 105 l 25
 182 105 185 105 201 105 c 0
 216 105 231 117 231 135 c 0
 231 154 231 516 231 535 c 0
EndSplineSet
EndChar
StartChar: t
Encoding: 116 116 10
Width: 400
Flags: W
HStem: 0 21G<37 173 227 363> 650 20G<37 173 227 363>
VStem: 40 130<2 190 285 668> 160 10<190 285> 230 130<2 390 485 668>
LayerCount: 2
Fore
SplineSet
160 190 m 5xd8
 160 285 l 5
 240 485 l 5
 240 390 l 5
 160 190 l 5xd8
360 122 m 2
 360 72 361.009765625 23.58203125 363 2 c 1
 360 0 l 1
 230 0 l 1
 227 2 l 1
 229 28 230 77 230 122 c 2
 230 548 l 2
 230 593 229 642 227 668 c 1
 230 670 l 1
 360 670 l 1
 363 668 l 1
 363 668 360 593 360 548 c 2
 360 122 l 2
170 122 m 2xe8
 170 80 171.009765625 23.58203125 173 2 c 1
 170 0 l 1xd8
 40 0 l 1
 37 2 l 1
 39 28 40 77 40 122 c 2
 40 548 l 2
 40 593 39 642 37 668 c 1
 40 670 l 1xe8
 170 670 l 1xd8
 173 668 l 1
 173 668 170 593 170 548 c 2
 170 122 l 2xe8
EndSplineSet
EndChar
StartChar: u
Encoding: 117 117 9
Width: 380
Flags: HW
HStem: -5 100<161.962 218.442> 575 100<162.058 217.942>
VStem: 30 130<97.1152 255 430 572.885> 221 129<97.1152 572.885>
LayerCount: 2
Fore
SplineSet
191 95 m 0
 206 95 221 107 221 125 c 0
 221 144 220 526 220 545 c 0
 220 563 205 575 190 575 c 0
 175 575 160 563 160 545 c 2
 160 430 l 1
 30 430 l 1
 30 541 l 2
 30 632 107 675 190 675 c 0
 273 675 350 632 350 541 c 0
 350 469 350 201 350 129 c 0
 350 38 273 -5 190 -5 c 0
 107 -5 30 38 30 129 c 2
 30 245 l 5
 160 245 l 5
 160 125 l 2
 160 106 175 95 191 95 c 0
EndSplineSet
EndChar
StartChar: v
Encoding: 118 118 27
Width: 400
Flags: W
HStem: -145 100<170 354.766> -15 100<172.836 230> 575 100<172.047 227.961>
VStem: 35 5<32 34.8727> 40 130<-45 -16.5403 112 572.912> 230 130<87.1152 572.926>
LayerCount: 2
Fore
SplineSet
230 545 m 0xec
 230 563 215 575 200 575 c 0
 185 575 170 563 170 545 c 0
 170 525.575195312 170 232 170 232 c 2
 170 185 171 134 173 112 c 1
 170 110 l 1xec
 129 108 73 89 40 32 c 1
 35 34 l 1xf4
 38 60 40 120 40 232 c 2
 40 232 40 469.365234375 40 541 c 0
 40 632.09375 116.916015625 675 200 675 c 0
 283.146484375 675 360 632.143554688 360 541 c 0
 360 469.231445312 360 191 360 119 c 0
 360 28 315 -15 226 -15 c 0
 200 -15 l 0
 180 -15 170 -27 170 -45 c 9
 252 -45 l 2
 283 -45 330 -42 356 -37 c 1
 360 -40 l 9
 360 -145 l 25
 169 -145 l 2
 119 -145 64 -147 42 -149 c 1
 40 -145 l 1
 40 -69 l 2
 40 34 100 85 210 85 c 0
 221.361912228 85 230 87.0087890625 230 99 c 0
 230 109 230 525.575195312 230 545 c 0xec
EndSplineSet
EndChar
StartChar: w
Encoding: 119 119 0
Width: 380
Flags: HW
HStem: -5 100<162.05 218.453> 575 100<162.047 217.961>
VStem: 30 130<97.074 572.912> 221 129<97.0883 572.926>
LayerCount: 2
Fore
SplineSet
190 95 m 0
 205 95 220 107 220 125 c 0
 220 144.424804688 220 525.575195312 220 545 c 0
 220 563 205 575 190 575 c 0
 175 575 160 563 160 545 c 0
 160 525.575195312 160 144.424804688 160 125 c 0
 160 106.404296875 174.294921875 95 190 95 c 0
30 129 m 0
 30 200.633789062 30 469.365234375 30 541 c 0
 30 632.09375 106.916015625 675 190 675 c 0
 273.146484375 675 350 632.143554688 350 541 c 0
 350 469.231445312 350 200.76953125 350 129 c 0
 350 37.90625 273.083984375 -5 190 -5 c 0
 106.853515625 -5 30 37.8564453125 30 129 c 0
EndSplineSet
EndChar
StartChar: x
Encoding: 120 120 26
Width: 530
Flags: W
HStem: -130 100<167.007 360> 0 21G<37 173 197 333> 575 100<126.5 199.529 330.145 406.5>
VStem: 40 130<-150 -133.326 2 572.885> 200 130<2 574.996> 360 130<-27.8848 572.885>
CounterMasks: 1 1c
LayerCount: 2
Fore
SplineSet
170 122 m 0
 170 75 171 24 173 2 c 1
 170 0 l 1
 40 0 l 1
 37 2 l 1
 39 28 40 77 40 122 c 2
 40 122 40 469 40 541 c 0
 40 632 87 675 166 675 c 0
 202.074887447 675 244.727539062 665.904296875 263 636 c 1
 269 636 l 1
 287 666 328 675 366 675 c 0
 447 675 490 632 490 541 c 0
 490 469 490 76 490 4 c 0
 490 -87 445 -130 356 -130 c 0
 277 -130 212 -130 197 -130 c 0
 177 -130 167 -137 167 -150 c 9
 37 -150 l 1
 37 -57 83 -30 167 -30 c 0
 250 -30 338 -30 346 -30 c 0
 354 -30 360 -25 360 -16 c 0
 360 -6 360 551 360 561 c 0
 360 570 353 575 345 575 c 0
 337 575 330 570 330 561 c 0
 330 415 330 268 330 122 c 0
 330 75 331 24 333 2 c 1
 330 0 l 1
 200 0 l 1
 197 2 l 1
 199 28 200 77 200 122 c 2
 200 122 200 551 200 561 c 0
 200 570 193 575 185 575 c 0
 177 575 170 570 170 561 c 0
 170 551 170 268 170 122 c 0
EndSplineSet
EndChar
StartChar: y
Encoding: 121 121 19
Width: 550
Flags: HW
HStem: -5 21G<136.5 215.5> 0 21G<377 513> 320 40<314 426> 655 20G<136.5 216.5>
VStem: 30 130<97.1152 255 430 572.885> 192 128<97.1152 320 360 572.885> 380 130<2 320 360 668>
LayerCount: 2
Fore
SplineSet
510 122 m 2x7e
 510 75 511.009765625 23.58203125 513 2 c 1
 510 0 l 1
 380 0 l 1
 377 2 l 1
 379 28 380 77 380 122 c 2
 380 548 l 2
 380 593 379 642 377 668 c 1
 380 670 l 1
 510 670 l 1
 513 668 l 1
 513 668 510 593 510 548 c 2
 510 122 l 2x7e
309 320 m 25
 314 360 l 25
 429 360 l 25
 426 320 l 25
 309 320 l 25
176 95 m 0
 184 95 192 100 192 109 c 0
 192 119 191 551 191 561 c 0
 191 570 183 575 175 575 c 0
 167 575 160 570 160 561 c 2
 160 430 l 1
 30 430 l 1
 30 541 l 2
 30 632 97 675 176 675 c 0
 257 675 320 632 320 541 c 0
 320 469 320 201 320 129 c 0
 320 38 255 -5 176 -5 c 0xbe
 97 -5 30 38 30 129 c 2
 30 245 l 5
 160 245 l 5
 160 109 l 2
 160 99 168 95 176 95 c 0
EndSplineSet
EndChar
StartChar: z
Encoding: 122 122 31
Width: 400
Flags: W
HStem: 0 21G<37 173 227 363>
VStem: 40 130<2 190 285 668> 160 10<190 285> 230 130<2 390 485 668>
LayerCount: 2
Fore
SplineSet
220 -150 m 25xe4
 220 -60 l 25
 330 -60 l 25
 330 -150 l 25
 220 -150 l 25xe4
70 -150 m 25xe8
 70 -60 l 25
 180 -60 l 25
 180 -150 l 25
 70 -150 l 25xe8
160 190 m 1xb0
 160 285 l 1
 240 485 l 1
 240 390 l 1
 160 190 l 1xb0
360 122 m 2
 360 72 361.009765625 23.58203125 363 2 c 1
 360 0 l 1
 230 0 l 1
 227 2 l 1
 229 28 230 77 230 122 c 2
 230 548 l 2
 230 593 229 642 227 668 c 1
 230 670 l 1
 360 670 l 1
 363 668 l 1
 363 668 360 593 360 548 c 2
 360 122 l 2
170 122 m 2xd0
 170 80 171.009765625 23.58203125 173 2 c 1
 170 0 l 1xb0
 40 0 l 1
 37 2 l 1
 39 28 40 77 40 122 c 2
 40 548 l 2
 40 593 39 642 37 668 c 1
 40 670 l 1xd0
 170 670 l 1xb0
 173 668 l 1
 173 668 170 593 170 548 c 2
 170 122 l 2xd0
EndSplineSet
EndChar
StartChar: asciitilde
Encoding: 126 126 86
Width: 500
Flags: HW
LayerCount: 2
Fore
SplineSet
130 225 m 5
 50 225 l 5
 50 255 l 5
 50 348.235351562 61.158203125 420 175 420 c 7
 241.354492188 420 284 395 335 395 c 7
 361.014648438 395 370 408.08203125 370 450 c 5
 450 450 l 5
 450 420 l 5
 450 322.48046875 443.4453125 255 325 255 c 7
 261.915039062 255 222.271484375 279.92578125 170.119140625 279.92578125 c 7
 135.970703125 279.92578125 130 256.591796875 130 225 c 5
EndSplineSet
EndChar
